# Blender 5.0.1
# www.blender.org
mtllib ceiling.mtl
o Cube.017
v 91.628693 86.196228 -149.842133
v 91.628693 90.977020 -149.842133
v -93.587021 86.196228 -149.842102
v -93.587021 90.977020 -149.842102
v -93.586960 86.196228 227.934875
v -93.586960 90.977020 227.934875
v 91.628738 90.977020 147.735901
v 91.628738 86.196228 147.735901
v -34.572254 90.977020 227.934860
v -34.572254 86.196228 227.934860
v -34.572266 86.196228 147.735916
v -34.572266 90.977020 147.735916
vn 1.0000 -0.0000 -0.0000
vn -0.0000 -0.0000 1.0000
vn -1.0000 -0.0000 -0.0000
vn -0.0000 -0.0000 -1.0000
vn -0.0000 -1.0000 -0.0000
vn -0.0000 1.0000 -0.0000
vt 0.625000 0.000000
vt 0.375000 0.196927
vt 0.375000 0.000000
vt 0.625000 0.500000
vt 0.375000 0.420343
vt 0.625000 0.420343
vt 0.375000 0.750000
vt 0.375000 0.500000
vt 0.625000 0.750000
vt 0.375000 1.000000
vt 0.125000 0.750000
vt 0.295343 0.553073
vt 0.875000 0.750000
vt 0.704657 0.553073
vt 0.603662 0.518226
vt 0.616137 0.750000
vt 0.616137 0.518226
vt 0.603662 0.992154
vt 0.616137 0.992154
vt 0.625000 0.196927
vt 0.625000 1.000000
vt 0.295343 0.500000
vt 0.125000 0.553073
vt 0.875000 0.553073
vt 0.704657 0.500000
vt 0.603662 0.750000
s 0
f 2/1/1 8/2/1 1/3/1
f 6/4/2 10/5/2 9/6/2
f 6/4/3 3/7/3 5/8/3
f 4/9/4 1/10/4 3/7/4
f 5/8/5 1/11/5 11/12/5
f 2/13/6 6/4/6 12/14/6
f 10/15/1 12/16/1 9/17/1
f 12/16/2 8/18/2 7/19/2
f 2/1/1 7/20/1 8/2/1
f 6/4/2 5/8/2 10/5/2
f 6/4/3 4/9/3 3/7/3
f 4/9/4 2/21/4 1/10/4
f 11/12/5 10/22/5 5/8/5
f 5/8/5 3/7/5 1/11/5
f 1/11/5 8/23/5 11/12/5
f 12/14/6 7/24/6 2/13/6
f 2/13/6 4/9/6 6/4/6
f 6/4/6 9/25/6 12/14/6
f 10/15/1 11/26/1 12/16/1
f 12/16/2 11/26/2 8/18/2
