# Blender 5.0.1
# www.blender.org
mtllib floor.mtl
o Cube
v -92.193962 1.232850 222.759583
v -92.193962 -1.232850 222.759583
v -92.193962 1.232850 -144.759583
v -92.193962 -1.232850 -144.759583
v 92.781792 1.232850 -144.759583
v 92.781792 -1.232850 -144.759583
v 92.781792 -1.232850 147.735916
v 92.781792 1.232850 147.735916
v -34.572266 -1.232850 222.759583
v -34.572266 1.232850 222.759583
v -34.572266 1.232850 147.735916
v -34.572266 -1.232850 147.735916
vn -1.0000 -0.0000 -0.0000
vn -0.0000 -0.0000 -1.0000
vn 1.0000 -0.0000 -0.0000
vn -0.0000 -0.0000 1.0000
vn -0.0000 1.0000 -0.0000
vn -0.0000 -1.0000 -0.0000
vt 0.625000 0.000000
vt 0.375000 0.250000
vt 0.375000 0.000000
vt 0.625000 0.250000
vt 0.375000 0.500000
vt 0.625000 0.500000
vt 0.375000 0.698966
vt 0.375000 1.000000
vt 0.625000 0.922123
vt 0.625000 1.000000
vt 0.125000 0.500000
vt 0.202877 0.698966
vt 0.875000 0.750000
vt 0.797123 0.698966
vt 0.384570 0.533183
vt 0.378136 0.750000
vt 0.378136 0.533183
vt 0.378136 0.994366
vt 0.384570 0.750000
vt 0.384570 0.994366
vt 0.625000 0.698966
vt 0.375000 0.922123
vt 0.202877 0.750000
vt 0.125000 0.750000
vt 0.875000 0.500000
vt 0.797123 0.750000
s 0
f 2/1/1 1/3/1 3/2/1
f 4/4/2 3/2/2 5/5/2
f 6/6/3 5/5/3 8/7/3
f 1/8/4 2/10/4 9/9/4
f 3/11/5 11/12/5 8/7/5
f 6/6/6 12/14/6 2/13/6
f 10/15/3 9/17/3 12/16/3
f 7/18/4 8/20/4 11/19/4
f 2/1/1 3/2/1 4/4/1
f 4/4/2 5/5/2 6/6/2
f 6/6/3 8/7/3 7/21/3
f 1/8/4 9/9/4 10/22/4
f 10/23/5 3/11/5 1/24/5
f 3/11/5 8/7/5 5/5/5
f 11/12/5 3/11/5 10/23/5
f 12/14/6 6/6/6 7/21/6
f 6/6/6 2/13/6 4/25/6
f 2/13/6 12/14/6 9/26/6
f 10/15/3 12/16/3 11/19/3
f 7/18/4 11/19/4 12/16/4
